<mxfile host="app.diagrams.net" modified="2023-04-20T13:38:31.146Z" agent="Mozilla/5.0 (Windows NT 10.0; Win64; x64) AppleWebKit/537.36 (KHTML, like Gecko) Chrome/112.0.0.0 Safari/537.36 Edg/112.0.1722.48" etag="-gQFwc9W8zudCIuBdV0z" version="21.2.1" type="github">
  <diagram name="第 1 页" id="w4TY7IVOejmQeIWzf-mZ">
    <mxGraphModel dx="913" dy="498" grid="1" gridSize="10" guides="1" tooltips="1" connect="1" arrows="1" fold="1" page="1" pageScale="1" pageWidth="827" pageHeight="1169" math="0" shadow="0">
      <root>
        <mxCell id="0" />
        <mxCell id="1" parent="0" />
        <mxCell id="OBMM-7ecoDWs5eMfNIn4-2" value="管理客户" style="ellipse;whiteSpace=wrap;html=1;" vertex="1" parent="1">
          <mxGeometry x="110" y="100" width="110" height="60" as="geometry" />
        </mxCell>
        <mxCell id="OBMM-7ecoDWs5eMfNIn4-3" value="查看商品库存报表" style="ellipse;whiteSpace=wrap;html=1;" vertex="1" parent="1">
          <mxGeometry x="110" y="190" width="110" height="60" as="geometry" />
        </mxCell>
        <mxCell id="OBMM-7ecoDWs5eMfNIn4-4" value="对订单的增删改查" style="ellipse;whiteSpace=wrap;html=1;" vertex="1" parent="1">
          <mxGeometry x="110" y="280" width="110" height="60" as="geometry" />
        </mxCell>
        <mxCell id="OBMM-7ecoDWs5eMfNIn4-5" value="销售员" style="shape=umlActor;verticalLabelPosition=bottom;verticalAlign=top;html=1;outlineConnect=0;" vertex="1" parent="1">
          <mxGeometry x="360" y="180" width="30" height="60" as="geometry" />
        </mxCell>
        <mxCell id="OBMM-7ecoDWs5eMfNIn4-6" value="销售经理" style="shape=umlActor;verticalLabelPosition=bottom;verticalAlign=top;html=1;outlineConnect=0;" vertex="1" parent="1">
          <mxGeometry x="500" y="180" width="30" height="60" as="geometry" />
        </mxCell>
        <mxCell id="OBMM-7ecoDWs5eMfNIn4-7" value="" style="endArrow=classic;html=1;rounded=0;entryX=0.091;entryY=0.833;entryDx=0;entryDy=0;entryPerimeter=0;" edge="1" parent="1" source="OBMM-7ecoDWs5eMfNIn4-6" target="OBMM-7ecoDWs5eMfNIn4-9">
          <mxGeometry width="50" height="50" relative="1" as="geometry">
            <mxPoint x="390" y="320" as="sourcePoint" />
            <mxPoint x="640" y="210" as="targetPoint" />
          </mxGeometry>
        </mxCell>
        <mxCell id="OBMM-7ecoDWs5eMfNIn4-9" value="批量审核订单" style="ellipse;whiteSpace=wrap;html=1;" vertex="1" parent="1">
          <mxGeometry x="630" y="130" width="110" height="60" as="geometry" />
        </mxCell>
        <mxCell id="OBMM-7ecoDWs5eMfNIn4-10" value="" style="endArrow=classic;html=1;rounded=0;entryX=0.953;entryY=0.723;entryDx=0;entryDy=0;entryPerimeter=0;" edge="1" parent="1" target="OBMM-7ecoDWs5eMfNIn4-2">
          <mxGeometry width="50" height="50" relative="1" as="geometry">
            <mxPoint x="350" y="200" as="sourcePoint" />
            <mxPoint x="440" y="270" as="targetPoint" />
          </mxGeometry>
        </mxCell>
        <mxCell id="OBMM-7ecoDWs5eMfNIn4-12" value="" style="endArrow=classic;html=1;rounded=0;" edge="1" parent="1" target="OBMM-7ecoDWs5eMfNIn4-3">
          <mxGeometry width="50" height="50" relative="1" as="geometry">
            <mxPoint x="350" y="230" as="sourcePoint" />
            <mxPoint x="440" y="270" as="targetPoint" />
          </mxGeometry>
        </mxCell>
        <mxCell id="OBMM-7ecoDWs5eMfNIn4-13" value="" style="endArrow=classic;html=1;rounded=0;entryX=1;entryY=0.5;entryDx=0;entryDy=0;" edge="1" parent="1" target="OBMM-7ecoDWs5eMfNIn4-4">
          <mxGeometry width="50" height="50" relative="1" as="geometry">
            <mxPoint x="350" y="260" as="sourcePoint" />
            <mxPoint x="440" y="270" as="targetPoint" />
          </mxGeometry>
        </mxCell>
        <mxCell id="OBMM-7ecoDWs5eMfNIn4-15" value="Extends" style="endArrow=block;endSize=16;endFill=0;html=1;rounded=0;" edge="1" parent="1">
          <mxGeometry x="-0.0364" y="-10" width="160" relative="1" as="geometry">
            <mxPoint x="503" y="210" as="sourcePoint" />
            <mxPoint x="393" y="210" as="targetPoint" />
            <mxPoint as="offset" />
          </mxGeometry>
        </mxCell>
        <mxCell id="OBMM-7ecoDWs5eMfNIn4-16" value="" style="endArrow=classic;html=1;rounded=0;entryX=0;entryY=0.5;entryDx=0;entryDy=0;" edge="1" parent="1" target="OBMM-7ecoDWs5eMfNIn4-17" source="OBMM-7ecoDWs5eMfNIn4-6">
          <mxGeometry width="50" height="50" relative="1" as="geometry">
            <mxPoint x="540" y="316" as="sourcePoint" />
            <mxPoint x="650" y="320" as="targetPoint" />
          </mxGeometry>
        </mxCell>
        <mxCell id="OBMM-7ecoDWs5eMfNIn4-17" value="查看和打印销售统计表" style="ellipse;whiteSpace=wrap;html=1;" vertex="1" parent="1">
          <mxGeometry x="640" y="240" width="110" height="60" as="geometry" />
        </mxCell>
      </root>
    </mxGraphModel>
  </diagram>
</mxfile>
